<?xml version="1.0" standalone="no"?>
<!DOCTYPE svg PUBLIC "-//W3C//DTD SVG 20010904//EN"
 "http://www.w3.org/TR/2001/REC-SVG-20010904/DTD/svg10.dtd">
<svg version="1.0" xmlns="http://www.w3.org/2000/svg"
 width="417.000000pt" height="417.000000pt" viewBox="0 0 417.000000 417.000000"
 preserveAspectRatio="xMidYMid meet">

<g transform="translate(0.000000,417.000000) scale(0.100000,-0.100000)"
fill="#000000" stroke="none">
<path d="M2240 4079 c-21 -9 -110 -11 -285 -6 -22 0 -90 -2 -150 -6 -98 -6
-120 -11 -200 -45 -50 -22 -114 -55 -144 -76 -29 -20 -60 -36 -68 -36 -30 0
-134 -114 -170 -185 -20 -38 -46 -84 -59 -101 -47 -61 -72 -162 -84 -335 -7
-108 -7 -166 0 -179 5 -10 10 -37 10 -59 0 -38 26 -111 40 -111 4 0 26 -53 49
-117 51 -141 62 -165 78 -176 17 -11 16 -27 -1 -27 -22 0 -29 -100 -10 -157 9
-26 20 -52 25 -57 5 -6 9 -18 9 -27 0 -10 4 -21 10 -24 6 -4 8 41 3 131 -5
110 -4 136 7 129 28 -17 159 -45 215 -45 69 0 198 23 249 44 20 8 55 35 80 60
45 45 50 56 95 224 8 29 20 46 36 54 37 17 60 -10 90 -106 32 -100 62 -146
117 -184 68 -46 111 -56 248 -56 106 -1 136 3 195 23 120 41 157 96 187 274 6
37 15 67 20 67 12 0 48 -62 48 -83 0 -10 4 -16 9 -13 5 3 8 0 8 -7 0 -6 3 -27
8 -44 8 -34 20 -43 27 -21 3 7 7 5 11 -6 4 -10 3 -15 -3 -11 -6 3 -10 -4 -10
-17 0 -19 2 -20 10 -8 9 13 11 13 20 0 8 -13 10 -13 10 -1 0 11 4 9 15 -5 8
-10 15 -16 15 -12 0 4 11 3 25 -2 25 -10 26 -9 19 28 -3 20 -20 66 -37 102
-25 53 -32 85 -39 175 -14 186 -65 323 -176 469 -37 49 -71 95 -77 103 -7 9
-6 16 1 21 54 36 65 51 66 96 1 56 -16 83 -85 136 -39 29 -63 40 -89 40 -39 0
-69 27 -112 102 -23 40 -34 48 -64 53 -20 4 -59 11 -85 16 -58 11 -75 11 -107
-2z m-39 -475 c86 -4 173 -2 232 5 89 11 97 11 140 -9 90 -42 165 -137 204
-259 27 -85 41 -151 32 -157 -21 -13 -216 9 -264 30 -41 17 -70 21 -160 21
-97 -1 -117 -4 -167 -27 -31 -14 -61 -36 -67 -47 -7 -12 -17 -21 -24 -21 -7 0
-34 -11 -62 -25 -27 -13 -67 -25 -88 -25 -42 0 -111 31 -120 54 -3 8 -23 24
-44 34 -107 54 -258 56 -359 4 -36 -18 -82 -32 -114 -35 l-52 -5 6 48 c6 47
38 149 70 223 23 53 88 115 153 144 51 23 64 25 142 20 103 -7 250 6 306 26
22 9 54 14 70 11 17 -2 91 -7 166 -10z m-910 -315 c-12 -46 -21 -94 -21 -108
0 -38 -10 -48 -57 -56 -56 -9 -56 -1 4 132 31 70 53 108 67 113 12 4 23 6 24
5 2 -2 -6 -41 -17 -86z m1624 -260 c15 -28 24 -56 22 -62 -2 -7 3 -17 12 -24
11 -9 12 -12 3 -13 -7 0 -26 14 -42 31 -23 26 -28 40 -27 75 1 24 3 44 4 44 2
0 14 -23 28 -51z"/>
<path d="M2896 2678 c-3 -13 -10 -83 -16 -157 -13 -175 -37 -314 -65 -376 -40
-90 -187 -229 -288 -273 -54 -23 -57 -19 -57 68 0 110 -18 220 -44 266 -14 27
-36 47 -69 63 -46 23 -56 24 -255 23 -198 -1 -361 -16 -422 -40 -32 -12 -66
-49 -79 -85 -14 -37 -14 -160 0 -248 7 -38 9 -72 6 -75 -10 -10 -68 27 -116
74 -37 36 -57 69 -87 141 -44 109 -57 109 -18 0 61 -171 120 -241 259 -310 63
-31 91 -52 114 -84 41 -58 53 -89 38 -105 -9 -10 -9 -11 1 -6 6 4 12 3 12 -2
0 -13 -25 -22 -65 -22 -42 0 -178 -44 -205 -67 -11 -10 -20 -28 -20 -41 0 -22
49 -104 70 -117 5 -3 30 10 55 29 51 40 102 53 134 36 12 -6 26 -8 31 -5 6 3
10 50 10 103 0 85 2 94 14 76 11 -14 11 -21 3 -26 -18 -11 15 -40 36 -32 9 3
17 10 17 14 0 5 9 6 20 3 11 -3 48 0 82 6 35 6 81 13 103 16 22 3 51 7 65 10
14 3 51 9 83 15 31 5 63 12 70 17 6 4 20 9 30 10 34 6 57 24 58 46 1 19 2 19
6 3 4 -15 9 -11 23 20 10 22 35 57 56 78 25 25 32 37 19 32 -50 -20 -188 -66
-198 -66 -25 0 12 19 96 49 135 48 193 80 263 144 60 55 136 153 168 215 7 15
24 79 36 142 12 63 24 117 27 120 2 2 8 -2 13 -9 5 -9 14 -11 26 -6 17 8 17 9
-3 12 -18 4 -23 11 -23 35 0 17 3 28 7 25 10 -10 31 46 28 74 -2 18 -1 19 3 4
5 -18 6 -18 13 5 6 21 7 18 8 -17 2 -104 41 -4 44 115 2 49 -1 72 -9 72 -7 0
-14 -7 -18 -15 -3 -8 -1 -15 4 -15 6 0 10 -5 10 -12 0 -9 -3 -9 -12 0 -20 20
-28 14 -48 -30 l-19 -43 0 67 c-1 66 -16 100 -25 56z m34 -213 c0 -8 -4 -15
-10 -15 -5 0 -10 7 -10 15 0 8 5 15 10 15 6 0 10 -7 10 -15z m-708 -246 c114
-12 151 -28 169 -72 27 -64 6 -256 -34 -314 -40 -59 -168 -93 -348 -93 -150 0
-237 20 -284 64 -42 40 -76 142 -82 252 -5 80 -5 80 25 106 22 18 52 30 99 38
37 6 91 15 118 19 74 13 220 12 337 0z m61 -536 c-7 -2 -19 -2 -25 0 -7 3 -2
5 12 5 14 0 19 -2 13 -5z"/>
<path d="M2405 1569 c-12 -37 5 -200 22 -206 8 -3 12 -12 9 -20 -9 -23 75 41
127 95 37 40 47 58 47 85 0 44 -22 55 -122 62 -72 5 -77 4 -83 -16z"/>
<path d="M2780 1356 c0 -8 -8 -17 -17 -19 -11 -3 -7 -5 10 -6 21 -1 27 4 27
19 0 11 -4 20 -10 20 -5 0 -10 -6 -10 -14z"/>
<path d="M1797 1343 c-4 -3 -7 -11 -7 -17 0 -6 5 -5 12 2 6 6 9 14 7 17 -3 3
-9 2 -12 -2z"/>
<path d="M1356 1284 c-13 -34 -7 -64 14 -64 12 0 44 -16 73 -35 81 -55 81 -42
-1 40 -41 41 -76 75 -77 75 -2 0 -6 -7 -9 -16z"/>
<path d="M1813 1118 c-15 -16 -19 -28 -13 -38 7 -12 12 -11 29 4 18 16 21 17
21 3 0 -8 12 -25 26 -36 29 -23 44 -27 44 -11 0 6 -5 10 -11 10 -18 0 -37 26
-41 56 -4 37 -27 42 -55 12z"/>
<path d="M2144 1088 c3 -13 6 -27 6 -31 0 -5 5 -5 11 -1 6 3 15 0 20 -7 6 -11
11 -11 20 -2 10 10 8 18 -11 38 -30 32 -55 33 -46 3z"/>
<path d="M2169 595 c-22 -12 -28 -28 -47 -117 -29 -133 -31 -285 -4 -295 9 -4
23 -13 30 -20 7 -7 19 -13 26 -13 7 0 29 -15 48 -34 27 -26 47 -36 84 -41 27
-3 58 -10 69 -15 11 -5 50 -11 86 -14 78 -6 96 5 72 41 -27 40 -36 218 -18
339 22 146 23 140 -34 154 -56 13 -86 3 -100 -33 -22 -57 -43 -252 -39 -351
l5 -102 -29 4 c-48 7 -62 42 -66 161 -5 131 19 285 49 317 l20 21 -38 7 c-57
9 -85 7 -114 -9z"/>
<path d="M1173 457 c-17 -7 -35 -15 -39 -19 -16 -17 -62 -229 -67 -312 -8
-122 -5 -126 91 -126 l77 0 -3 80 c-6 112 34 340 59 340 5 0 9 6 9 14 0 8 -15
17 -36 20 -19 4 -41 9 -47 11 -7 2 -26 -2 -44 -8z"/>
<path d="M1562 428 c-1 -16 -9 -28 -19 -31 -17 -4 -17 -4 0 -12 24 -10 29 -3
24 37 -3 27 -4 28 -5 6z"/>
<path d="M1373 392 c-18 -11 -53 -221 -53 -314 l0 -78 85 0 85 0 -7 28 c-10
36 -10 200 0 280 5 38 4 62 -1 58 -11 -7 -82 15 -82 26 0 10 -11 10 -27 0z"/>
<path d="M2716 154 c-11 -7 -16 -17 -13 -21 4 -4 15 1 24 10 22 21 14 30 -11
11z"/>
<path d="M2022 83 c-1 -17 -6 -33 -12 -35 -5 -1 -7 -13 -4 -25 9 -34 73 -32
111 3 l28 26 -25 -6 c-14 -3 -39 -7 -57 -10 -31 -4 -32 -3 -36 37 -3 34 -4 36
-5 10z"/>
<path d="M2693 38 c-25 -32 -26 -40 -4 -29 11 7 21 18 21 26 0 18 -5 19 -17 3z"/>
<path d="M1870 13 c0 -7 9 -13 20 -13 11 0 20 6 20 14 0 9 -9 14 -20 13 -11
-1 -20 -7 -20 -14z"/>
</g>
</svg>
